<svg width="71" height="71" viewBox="0 0 71 71" fill="none" xmlns="http://www.w3.org/2000/svg">
<path d="M55.168 70.656C51.072 70.656 47.808 69.44 45.376 67.008C43.008 64.576 41.824 60.992 41.824 56.256V44.352C41.824 41.28 41.056 38.688 39.52 36.576C38.048 34.464 35.744 33.408 32.608 33.408H27.232V62.976C27.232 63.808 27.392 64.416 27.712 64.8C28.096 65.12 28.704 65.28 29.536 65.28H37.984V68.352H4V65.28H10.72C11.616 65.28 12.224 65.12 12.544 64.8C12.864 64.416 13.024 63.808 13.024 62.976V5.376C13.024 4.48 12.864 3.872 12.544 3.552C12.224 3.232 11.616 3.072 10.72 3.072H4V0H35.104C42.016 0 47.584 1.536 51.808 4.608C56.032 7.616 58.144 11.712 58.144 16.896C58.144 21.312 56.512 24.8 53.248 27.36C50.048 29.92 45.792 31.52 40.48 32.16V32.832C45.472 33.728 49.312 35.52 52 38.208C54.688 40.832 56.032 44.96 56.032 50.592V61.248C56.032 63.936 56.928 65.28 58.72 65.28C60.384 65.28 61.6 63.904 62.368 61.152C63.136 58.4 63.52 55.04 63.52 51.072H66.592C66.592 57.28 65.76 62.112 64.096 65.568C62.432 68.96 59.456 70.656 55.168 70.656ZM33.664 30.336C37.056 30.336 39.424 29.088 40.768 26.592C42.112 24.096 42.784 20.608 42.784 16.128C42.784 11.776 42.112 8.512 40.768 6.336C39.424 4.16 37.056 3.072 33.664 3.072H29.536C28.704 3.072 28.096 3.232 27.712 3.552C27.392 3.872 27.232 4.48 27.232 5.376V30.336H33.664Z" fill="#0074A6"/>
</svg>
